<svg width="1440" height="1194" viewBox="0 0 1440 1194" fill="none" xmlns="http://www.w3.org/2000/svg">
<rect y="544" width="1440" height="650" fill="#BFDBFE"/>
<rect x="751" y="830" width="541" height="96" rx="16" fill="white"/>
<rect x="783" y="862" width="250" height="32" rx="8" fill="#B8CFFF"/>
<rect x="1228" y="862" width="32" height="32" rx="16" fill="#B8CFFF"/>
<rect x="154" y="694" width="577" height="96" rx="16" fill="white"/>
<rect x="186" y="726" width="250" height="32" rx="8" fill="#B8CFFF"/>
<rect x="667" y="726" width="32" height="32" rx="16" fill="#B8CFFF"/>
<rect x="751" y="694" width="541" height="96" rx="16" fill="white"/>
<rect x="783" y="726" width="290" height="32" rx="8" fill="#B8CFFF"/>
<rect x="1228" y="726" width="32" height="32" rx="16" fill="#B8CFFF"/>
<rect x="154" y="830" width="577" height="96" rx="16" fill="white"/>
<rect x="186" y="862" width="290" height="32" rx="8" fill="#B8CFFF"/>
<rect x="667" y="862" width="32" height="32" rx="16" fill="#B8CFFF"/>
<rect x="154" y="966" width="577" height="96" rx="16" fill="white"/>
<rect x="186" y="998" width="200" height="32" rx="8" fill="#B8CFFF"/>
<rect x="667" y="998" width="32" height="32" rx="16" fill="#B8CFFF"/>
<rect x="751" y="966" width="541" height="96" rx="16" fill="white"/>
<rect x="783" y="998" width="274" height="32" rx="8" fill="#B8CFFF"/>
<rect x="1228" y="998" width="32" height="32" rx="16" fill="#B8CFFF"/>
<rect width="1440" height="544" fill="#BFDBFE"/>
<rect x="150" y="48" width="340" height="464" rx="16" fill="white"/>
<rect x="198" y="96" width="90" height="64" rx="8" fill="#4785FF"/>
<rect x="198" y="208" width="160" height="32" rx="8" fill="#B8CFFF"/>
<rect x="198" y="288" width="219" height="16" rx="8" fill="#D6E4FF"/>
<rect x="198" y="320" width="244" height="16" rx="8" fill="#D6E4FF"/>
<rect x="198" y="352" width="200" height="16" rx="8" fill="#D6E4FF"/>
<rect x="200" y="418" width="156" height="44" rx="22" stroke="#4785FF" stroke-width="4"/>
<rect x="550" y="48" width="340" height="464" rx="16" fill="#4785FF"/>
<rect x="598" y="96" width="90" height="64" rx="8" fill="#BFDBFE"/>
<rect x="598" y="208" width="160" height="32" rx="8" fill="#B8CFFF"/>
<rect x="598" y="288" width="219" height="16" rx="8" fill="#B8CFFF"/>
<rect x="598" y="320" width="244" height="16" rx="8" fill="#B8CFFF"/>
<rect x="598" y="352" width="200" height="16" rx="8" fill="#B8CFFF"/>
<rect x="598" y="416" width="160" height="48" rx="24" fill="#BFDBFE"/>
<rect x="950" y="48" width="340" height="464" rx="16" fill="white"/>
<rect x="998" y="96" width="90" height="64" rx="8" fill="#4785FF"/>
<rect x="998" y="208" width="160" height="32" rx="8" fill="#B8CFFF"/>
<rect x="998" y="288" width="219" height="16" rx="8" fill="#D6E4FF"/>
<rect x="998" y="320" width="244" height="16" rx="8" fill="#D6E4FF"/>
<rect x="998" y="352" width="200" height="16" rx="8" fill="#D6E4FF"/>
<rect x="1000" y="418" width="156" height="44" rx="22" stroke="#4785FF" stroke-width="4"/>
</svg>
